# xmcd CD database file
#
# Track frame offsets:
#	150
#	18359
#	35544
#	53984
#	72176
#	89927
#	107396
#	119467
#	135750
#	153123
#	168572
#	186981
#	202626
#	223543
#	247469
#
# Disc length: 3618 seconds
#
# Revision: 0
# Processed by: cddbd v1.5.2PL0 Copyright (c) Steve Scherf et al.
# Submitted via: CDex 1.51
#
DISCID=d00e200f
DTITLE=Cluster - Steps
DYEAR=2009
DGENRE=New Age
TTITLE0=Just Kidding
TTITLE1=Steps
TTITLE2=Could It Be
TTITLE3=One Note Samba
TTITLE4=Simple Words
TTITLE5=I Wish
TTITLE6=Mi Sono Innamorato Di Te
TTITLE7=Comecar De Novo (The Island)
TTITLE8=Fake
TTITLE9=224
TTITLE10=Spain
TTITLE11=Love Of My Life
TTITLE12=Untought
TTITLE13=Halleluja
TTITLE14=Time After Time (Bouns Track)
EXTD=YEAR: 2009
EXTT0=
EXTT1=
EXTT2=
EXTT3=
EXTT4=
EXTT5=
EXTT6=
EXTT7=
EXTT8=
EXTT9=
EXTT10=
EXTT11=
EXTT12=
EXTT13=
EXTT14=
PLAYORDER=
